<svg xmlns="http://www.w3.org/2000/svg" xmlns:xlink="http://www.w3.org/1999/xlink" width="500" zoomAndPan="magnify" viewBox="0 0 375 374.999991" height="500" preserveAspectRatio="xMidYMid meet" version="1.0"><defs><g/><clipPath id="83dbc3a023"><path d="M 174 160 L 202 160 L 202 197.0625 L 174 197.0625 Z M 174 160 " clip-rule="nonzero"/></clipPath><clipPath id="b417193165"><path d="M 174 124.3125 L 202 124.3125 L 202 161 L 174 161 Z M 174 124.3125 " clip-rule="nonzero"/></clipPath><clipPath id="a08dfc4d71"><path d="M 151.25 147 L 188 147 L 188 175 L 151.25 175 Z M 151.25 147 " clip-rule="nonzero"/></clipPath></defs><g clip-path="url(#83dbc3a023)"><path fill="#a6a6a6" d="M 195.550781 197.023438 L 179.683594 197.023438 C 176.621094 197.023438 174.113281 194.519531 174.113281 191.457031 L 174.113281 183.753906 L 177.824219 183.753906 L 177.824219 191.457031 C 177.824219 192.476562 178.660156 193.3125 179.683594 193.3125 L 195.550781 193.3125 C 196.570312 193.3125 197.40625 192.476562 197.40625 191.457031 L 197.40625 160.6875 L 201.117188 160.6875 L 201.117188 191.457031 C 201.117188 194.519531 198.628906 197.023438 195.550781 197.023438 Z M 195.550781 197.023438 " fill-opacity="1" fill-rule="nonzero"/></g><g clip-path="url(#b417193165)"><path fill="#03989e" d="M 177.824219 160.6875 L 174.113281 160.6875 L 174.113281 129.917969 C 174.113281 126.855469 176.621094 124.347656 179.683594 124.347656 L 195.550781 124.347656 C 198.613281 124.347656 201.117188 126.855469 201.117188 129.917969 L 201.117188 137.617188 L 197.40625 137.617188 L 197.40625 129.917969 C 197.40625 128.894531 196.570312 128.0625 195.550781 128.0625 L 179.683594 128.0625 C 178.660156 128.0625 177.824219 128.894531 177.824219 129.917969 Z M 177.824219 160.6875 " fill-opacity="1" fill-rule="nonzero"/></g><g clip-path="url(#a08dfc4d71)"><path fill="#03989e" d="M 187.625 174.199219 L 156.855469 174.199219 C 153.792969 174.199219 151.289062 171.691406 151.289062 168.628906 L 151.289062 152.761719 C 151.289062 149.699219 153.792969 147.195312 156.855469 147.195312 L 164.554688 147.195312 L 164.554688 150.90625 L 156.855469 150.90625 C 155.835938 150.90625 155 151.742188 155 152.761719 L 155 168.628906 C 155 169.652344 155.835938 170.484375 156.855469 170.484375 L 187.625 170.484375 Z M 187.625 174.199219 " fill-opacity="1" fill-rule="nonzero"/></g><path fill="#a6a6a6" d="M 218.394531 174.199219 L 210.695312 174.199219 L 210.695312 170.484375 L 218.394531 170.484375 C 219.414062 170.484375 220.25 169.652344 220.25 168.628906 L 220.25 152.761719 C 220.25 151.742188 219.414062 150.90625 218.394531 150.90625 L 187.625 150.90625 L 187.625 147.195312 L 218.394531 147.195312 C 221.457031 147.195312 223.960938 149.699219 223.960938 152.761719 L 223.960938 168.628906 C 223.960938 171.691406 221.457031 174.199219 218.394531 174.199219 Z M 218.394531 174.199219 " fill-opacity="1" fill-rule="nonzero"/><g fill="#03989e" fill-opacity="1"><g transform="translate(79.429376, 228.662738)"><g><path d="M 11.421875 0 L 7.96875 0 L 0.078125 -19.796875 L 3.671875 -19.796875 L 9.78125 -3.703125 L 15.953125 -19.796875 L 19.421875 -19.796875 Z M 11.421875 0 "/></g></g></g><g fill="#03989e" fill-opacity="1"><g transform="translate(103.174247, 228.662738)"><g><path d="M 15.15625 0 L 11.53125 -6 C 11.34375 -5.976562 11.046875 -5.96875 10.640625 -5.96875 L 5.9375 -5.96875 L 5.9375 0 L 2.609375 0 L 2.609375 -19.796875 L 10.640625 -19.796875 C 13.160156 -19.796875 15.117188 -19.207031 16.515625 -18.03125 C 17.910156 -16.851562 18.609375 -15.1875 18.609375 -13.03125 C 18.609375 -11.445312 18.253906 -10.109375 17.546875 -9.015625 C 16.835938 -7.921875 15.828125 -7.125 14.515625 -6.625 L 18.953125 0 Z M 5.9375 -8.96875 L 10.640625 -8.96875 C 13.835938 -8.96875 15.4375 -10.296875 15.4375 -12.953125 C 15.4375 -15.515625 13.835938 -16.796875 10.640625 -16.796875 L 5.9375 -16.796875 Z M 5.9375 -8.96875 "/></g></g></g><g fill="#03989e" fill-opacity="1"><g transform="translate(127.851878, 228.662738)"><g><path d="M 23.53125 0 L 20.453125 0 L 20.421875 -14.796875 L 14.171875 -2.0625 L 11.984375 -2.0625 L 5.734375 -14.796875 L 5.734375 0 L 2.609375 0 L 2.609375 -19.796875 L 6.5625 -19.796875 L 13.09375 -6.640625 L 19.59375 -19.796875 L 23.53125 -19.796875 Z M 23.53125 0 "/></g></g></g><g fill="#03989e" fill-opacity="1"><g transform="translate(158.239173, 228.662738)"><g/></g></g><g fill="#03989e" fill-opacity="1"><g transform="translate(169.773278, 228.662738)"><g><path d="M 2.609375 -19.796875 L 10.5 -19.796875 C 12.976562 -19.796875 14.898438 -19.207031 16.265625 -18.03125 C 17.640625 -16.851562 18.328125 -15.1875 18.328125 -13.03125 C 18.328125 -10.789062 17.640625 -9.050781 16.265625 -7.8125 C 14.898438 -6.582031 12.976562 -5.96875 10.5 -5.96875 L 5.9375 -5.96875 L 5.9375 0 L 2.609375 0 Z M 5.9375 -16.796875 L 5.9375 -8.96875 L 10.34375 -8.96875 C 13.53125 -8.96875 15.125 -10.296875 15.125 -12.953125 C 15.125 -15.515625 13.53125 -16.796875 10.34375 -16.796875 Z M 5.9375 -16.796875 "/></g></g></g><g fill="#03989e" fill-opacity="1"><g transform="translate(193.037627, 228.662738)"><g><path d="M 19.765625 0 L 16.4375 0 L 16.4375 -8.203125 L 5.9375 -8.203125 L 5.9375 0 L 2.609375 0 L 2.609375 -19.796875 L 5.9375 -19.796875 L 5.9375 -11.203125 L 16.4375 -11.203125 L 16.4375 -19.796875 L 19.765625 -19.796875 Z M 19.765625 0 "/></g></g></g><g fill="#03989e" fill-opacity="1"><g transform="translate(219.637323, 228.662738)"><g><path d="M 15.390625 -4.46875 L 5.40625 -4.46875 L 3.5 0 L 0.03125 0 L 8.765625 -19.796875 L 12.1875 -19.796875 L 20.84375 0 L 17.28125 0 Z M 14.109375 -7.4375 L 10.375 -16.234375 L 6.640625 -7.4375 Z M 14.109375 -7.4375 "/></g></g></g><g fill="#03989e" fill-opacity="1"><g transform="translate(244.73893, 228.662738)"><g><path d="M 15.15625 0 L 11.53125 -6 C 11.34375 -5.976562 11.046875 -5.96875 10.640625 -5.96875 L 5.9375 -5.96875 L 5.9375 0 L 2.609375 0 L 2.609375 -19.796875 L 10.640625 -19.796875 C 13.160156 -19.796875 15.117188 -19.207031 16.515625 -18.03125 C 17.910156 -16.851562 18.609375 -15.1875 18.609375 -13.03125 C 18.609375 -11.445312 18.253906 -10.109375 17.546875 -9.015625 C 16.835938 -7.921875 15.828125 -7.125 14.515625 -6.625 L 18.953125 0 Z M 5.9375 -8.96875 L 10.640625 -8.96875 C 13.835938 -8.96875 15.4375 -10.296875 15.4375 -12.953125 C 15.4375 -15.515625 13.835938 -16.796875 10.640625 -16.796875 L 5.9375 -16.796875 Z M 5.9375 -8.96875 "/></g></g></g><g fill="#03989e" fill-opacity="1"><g transform="translate(269.416555, 228.662738)"><g><path d="M 23.53125 0 L 20.453125 0 L 20.421875 -14.796875 L 14.171875 -2.0625 L 11.984375 -2.0625 L 5.734375 -14.796875 L 5.734375 0 L 2.609375 0 L 2.609375 -19.796875 L 6.5625 -19.796875 L 13.09375 -6.640625 L 19.59375 -19.796875 L 23.53125 -19.796875 Z M 23.53125 0 "/></g></g></g><g fill="#a6a6a6" fill-opacity="1"><g transform="translate(121.521714, 248.687928)"><g><path d="M 6.984375 0 L 5.8125 0 L 5.8125 -2.90625 L 2.09375 -2.90625 L 2.09375 0 L 0.921875 0 L 0.921875 -7 L 2.09375 -7 L 2.09375 -3.953125 L 5.8125 -3.953125 L 5.8125 -7 L 6.984375 -7 Z M 6.984375 0 "/></g></g></g><g fill="#a6a6a6" fill-opacity="1"><g transform="translate(131.92859, 248.687928)"><g><path d="M 5.921875 -5.9375 L 2.09375 -5.9375 L 2.09375 -4.046875 L 5.515625 -4.046875 L 5.515625 -2.984375 L 2.09375 -2.984375 L 2.09375 -1.0625 L 6.046875 -1.0625 L 6.046875 0 L 0.921875 0 L 0.921875 -7 L 5.921875 -7 Z M 5.921875 -5.9375 "/></g></g></g><g fill="#a6a6a6" fill-opacity="1"><g transform="translate(140.986001, 248.687928)"><g><path d="M 5.4375 -1.578125 L 1.90625 -1.578125 L 1.234375 0 L 0.015625 0 L 3.09375 -7 L 4.3125 -7 L 7.375 0 L 6.109375 0 Z M 4.984375 -2.625 L 3.671875 -5.734375 L 2.34375 -2.625 Z M 4.984375 -2.625 "/></g></g></g><g fill="#a6a6a6" fill-opacity="1"><g transform="translate(150.863084, 248.687928)"><g><path d="M 2.09375 -1.0625 L 5.125 -1.0625 L 5.125 0 L 0.921875 0 L 0.921875 -7 L 2.09375 -7 Z M 2.09375 -1.0625 "/></g></g></g><g fill="#a6a6a6" fill-opacity="1"><g transform="translate(158.700968, 248.687928)"><g><path d="M 5.703125 -5.9375 L 3.484375 -5.9375 L 3.484375 0 L 2.296875 0 L 2.296875 -5.9375 L 0.09375 -5.9375 L 0.09375 -7 L 5.703125 -7 Z M 5.703125 -5.9375 "/></g></g></g><g fill="#a6a6a6" fill-opacity="1"><g transform="translate(166.988672, 248.687928)"><g><path d="M 6.984375 0 L 5.8125 0 L 5.8125 -2.90625 L 2.09375 -2.90625 L 2.09375 0 L 0.921875 0 L 0.921875 -7 L 2.09375 -7 L 2.09375 -3.953125 L 5.8125 -3.953125 L 5.8125 -7 L 6.984375 -7 Z M 6.984375 0 "/></g></g></g><g fill="#a6a6a6" fill-opacity="1"><g transform="translate(177.395548, 248.687928)"><g/></g></g><g fill="#a6a6a6" fill-opacity="1"><g transform="translate(182.474528, 248.687928)"><g><path d="M 0.921875 -7 L 3.703125 -7 C 4.585938 -7 5.269531 -6.789062 5.75 -6.375 C 6.238281 -5.957031 6.484375 -5.367188 6.484375 -4.609375 C 6.484375 -3.816406 6.238281 -3.203125 5.75 -2.765625 C 5.269531 -2.328125 4.585938 -2.109375 3.703125 -2.109375 L 2.09375 -2.109375 L 2.09375 0 L 0.921875 0 Z M 2.09375 -5.9375 L 2.09375 -3.171875 L 3.65625 -3.171875 C 4.78125 -3.171875 5.34375 -3.640625 5.34375 -4.578125 C 5.34375 -5.484375 4.78125 -5.9375 3.65625 -5.9375 Z M 2.09375 -5.9375 "/></g></g></g><g fill="#a6a6a6" fill-opacity="1"><g transform="translate(191.701858, 248.687928)"><g><path d="M 5.359375 0 L 4.078125 -2.125 C 4.015625 -2.113281 3.910156 -2.109375 3.765625 -2.109375 L 2.09375 -2.109375 L 2.09375 0 L 0.921875 0 L 0.921875 -7 L 3.765625 -7 C 4.648438 -7 5.335938 -6.789062 5.828125 -6.375 C 6.328125 -5.957031 6.578125 -5.367188 6.578125 -4.609375 C 6.578125 -4.046875 6.453125 -3.570312 6.203125 -3.1875 C 5.953125 -2.800781 5.59375 -2.519531 5.125 -2.34375 L 6.703125 0 Z M 2.09375 -3.171875 L 3.765625 -3.171875 C 4.890625 -3.171875 5.453125 -3.640625 5.453125 -4.578125 C 5.453125 -5.484375 4.890625 -5.9375 3.765625 -5.9375 L 2.09375 -5.9375 Z M 2.09375 -3.171875 "/></g></g></g><g fill="#a6a6a6" fill-opacity="1"><g transform="translate(201.429004, 248.687928)"><g><path d="M 1.40625 -6.015625 C 2.125 -6.691406 3.003906 -7.03125 4.046875 -7.03125 C 5.097656 -7.03125 5.976562 -6.691406 6.6875 -6.015625 C 7.40625 -5.335938 7.765625 -4.5 7.765625 -3.5 C 7.765625 -2.5 7.40625 -1.65625 6.6875 -0.96875 C 5.976562 -0.289062 5.097656 0.046875 4.046875 0.046875 C 3.003906 0.046875 2.125 -0.289062 1.40625 -0.96875 C 0.695312 -1.65625 0.34375 -2.5 0.34375 -3.5 C 0.34375 -4.5 0.695312 -5.335938 1.40625 -6.015625 Z M 4.0625 -5.96875 C 3.363281 -5.96875 2.769531 -5.726562 2.28125 -5.25 C 1.789062 -4.78125 1.546875 -4.195312 1.546875 -3.5 C 1.546875 -2.800781 1.789062 -2.210938 2.28125 -1.734375 C 2.78125 -1.253906 3.375 -1.015625 4.0625 -1.015625 C 4.75 -1.015625 5.332031 -1.253906 5.8125 -1.734375 C 6.300781 -2.210938 6.546875 -2.800781 6.546875 -3.5 C 6.546875 -4.195312 6.300781 -4.78125 5.8125 -5.25 C 5.332031 -5.726562 4.75 -5.96875 4.0625 -5.96875 Z M 4.0625 -5.96875 "/></g></g></g><g fill="#a6a6a6" fill-opacity="1"><g transform="translate(212.025808, 248.687928)"><g><path d="M 4.046875 0 L 2.8125 0 L 0.03125 -7 L 1.296875 -7 L 3.453125 -1.3125 L 5.640625 -7 L 6.875 -7 Z M 4.046875 0 "/></g></g></g><g fill="#a6a6a6" fill-opacity="1"><g transform="translate(221.423078, 248.687928)"><g><path d="M 2.09375 0 L 0.921875 0 L 0.921875 -7 L 2.09375 -7 Z M 2.09375 0 "/></g></g></g><g fill="#a6a6a6" fill-opacity="1"><g transform="translate(226.941888, 248.687928)"><g><path d="M 0.921875 -7 L 3.796875 -7 C 4.835938 -7 5.695312 -6.664062 6.375 -6 C 7.0625 -5.34375 7.40625 -4.507812 7.40625 -3.5 C 7.40625 -2.488281 7.0625 -1.648438 6.375 -0.984375 C 5.6875 -0.328125 4.816406 0 3.765625 0 L 0.921875 0 Z M 2.09375 -5.9375 L 2.09375 -1.0625 L 3.8125 -1.0625 C 4.5 -1.0625 5.070312 -1.289062 5.53125 -1.75 C 5.988281 -2.207031 6.21875 -2.785156 6.21875 -3.484375 C 6.21875 -4.191406 5.984375 -4.773438 5.515625 -5.234375 C 5.046875 -5.703125 4.460938 -5.9375 3.765625 -5.9375 Z M 2.09375 -5.9375 "/></g></g></g><g fill="#a6a6a6" fill-opacity="1"><g transform="translate(237.188824, 248.687928)"><g><path d="M 5.921875 -5.9375 L 2.09375 -5.9375 L 2.09375 -4.046875 L 5.515625 -4.046875 L 5.515625 -2.984375 L 2.09375 -2.984375 L 2.09375 -1.0625 L 6.046875 -1.0625 L 6.046875 0 L 0.921875 0 L 0.921875 -7 L 5.921875 -7 Z M 5.921875 -5.9375 "/></g></g></g><g fill="#a6a6a6" fill-opacity="1"><g transform="translate(246.246238, 248.687928)"><g><path d="M 5.359375 0 L 4.078125 -2.125 C 4.015625 -2.113281 3.910156 -2.109375 3.765625 -2.109375 L 2.09375 -2.109375 L 2.09375 0 L 0.921875 0 L 0.921875 -7 L 3.765625 -7 C 4.648438 -7 5.335938 -6.789062 5.828125 -6.375 C 6.328125 -5.957031 6.578125 -5.367188 6.578125 -4.609375 C 6.578125 -4.046875 6.453125 -3.570312 6.203125 -3.1875 C 5.953125 -2.800781 5.59375 -2.519531 5.125 -2.34375 L 6.703125 0 Z M 2.09375 -3.171875 L 3.765625 -3.171875 C 4.890625 -3.171875 5.453125 -3.640625 5.453125 -4.578125 C 5.453125 -5.484375 4.890625 -5.9375 3.765625 -5.9375 L 2.09375 -5.9375 Z M 2.09375 -3.171875 "/></g></g></g></svg>